<mxfile host="65bd71144e">
    <diagram id="OWYcT5LWM7WdCTulDnPo" name="Page-1">
        <mxGraphModel dx="744" dy="545" grid="1" gridSize="10" guides="1" tooltips="1" connect="1" arrows="1" fold="1" page="1" pageScale="1" pageWidth="850" pageHeight="1100" math="0" shadow="0">
            <root>
                <mxCell id="0"/>
                <mxCell id="1" parent="0"/>
                <mxCell id="22" value="" style="group" vertex="1" connectable="0" parent="1">
                    <mxGeometry x="310" y="220" width="80" height="100" as="geometry"/>
                </mxCell>
                <mxCell id="10" value="" style="verticalLabelPosition=bottom;shadow=0;dashed=0;align=center;html=1;verticalAlign=top;shape=mxgraph.electrical.transistors.nigbt;" vertex="1" parent="22">
                    <mxGeometry width="50" height="100" as="geometry"/>
                </mxCell>
                <mxCell id="15" style="edgeStyle=orthogonalEdgeStyle;rounded=0;html=1;exitX=1;exitY=0.5;exitDx=0;exitDy=0;exitPerimeter=0;endArrow=none;endFill=0;" edge="1" parent="22" source="11">
                    <mxGeometry relative="1" as="geometry">
                        <mxPoint x="50" y="20" as="targetPoint"/>
                    </mxGeometry>
                </mxCell>
                <mxCell id="17" style="edgeStyle=orthogonalEdgeStyle;rounded=0;html=1;exitX=0;exitY=0.5;exitDx=0;exitDy=0;exitPerimeter=0;endArrow=none;endFill=0;entryX=1.003;entryY=0.915;entryDx=0;entryDy=0;entryPerimeter=0;" edge="1" parent="22" source="11" target="10">
                    <mxGeometry relative="1" as="geometry">
                        <mxPoint x="70" y="110" as="targetPoint"/>
                    </mxGeometry>
                </mxCell>
                <mxCell id="11" value="" style="pointerEvents=1;fillColor=strokeColor;verticalLabelPosition=bottom;shadow=0;dashed=0;align=center;html=1;verticalAlign=top;shape=mxgraph.electrical.diodes.diode;rotation=-90;" vertex="1" parent="22">
                    <mxGeometry x="50" y="40" width="40" height="20" as="geometry"/>
                </mxCell>
                <mxCell id="23" value="" style="group" vertex="1" connectable="0" parent="1">
                    <mxGeometry x="310" y="360" width="80" height="100" as="geometry"/>
                </mxCell>
                <mxCell id="18" value="" style="verticalLabelPosition=bottom;shadow=0;dashed=0;align=center;html=1;verticalAlign=top;shape=mxgraph.electrical.transistors.nigbt;" vertex="1" parent="23">
                    <mxGeometry width="50" height="100" as="geometry"/>
                </mxCell>
                <mxCell id="19" style="edgeStyle=orthogonalEdgeStyle;rounded=0;html=1;exitX=1;exitY=0.5;exitDx=0;exitDy=0;exitPerimeter=0;endArrow=none;endFill=0;" edge="1" parent="23" source="21">
                    <mxGeometry relative="1" as="geometry">
                        <mxPoint x="50" y="20" as="targetPoint"/>
                    </mxGeometry>
                </mxCell>
                <mxCell id="20" style="edgeStyle=orthogonalEdgeStyle;rounded=0;html=1;exitX=0;exitY=0.5;exitDx=0;exitDy=0;exitPerimeter=0;endArrow=none;endFill=0;" edge="1" parent="23" source="21">
                    <mxGeometry relative="1" as="geometry">
                        <mxPoint x="50" y="80" as="targetPoint"/>
                    </mxGeometry>
                </mxCell>
                <mxCell id="21" value="" style="pointerEvents=1;fillColor=strokeColor;verticalLabelPosition=bottom;shadow=0;dashed=0;align=center;html=1;verticalAlign=top;shape=mxgraph.electrical.diodes.diode;rotation=-90;" vertex="1" parent="23">
                    <mxGeometry x="50" y="40" width="40" height="20" as="geometry"/>
                </mxCell>
                <mxCell id="24" value="" style="group" vertex="1" connectable="0" parent="1">
                    <mxGeometry x="490" y="220" width="80" height="100" as="geometry"/>
                </mxCell>
                <mxCell id="25" value="" style="verticalLabelPosition=bottom;shadow=0;dashed=0;align=center;html=1;verticalAlign=top;shape=mxgraph.electrical.transistors.nigbt;" vertex="1" parent="24">
                    <mxGeometry width="50" height="100" as="geometry"/>
                </mxCell>
                <mxCell id="26" style="edgeStyle=orthogonalEdgeStyle;rounded=0;html=1;exitX=1;exitY=0.5;exitDx=0;exitDy=0;exitPerimeter=0;endArrow=none;endFill=0;" edge="1" parent="24" source="28">
                    <mxGeometry relative="1" as="geometry">
                        <mxPoint x="50" y="20" as="targetPoint"/>
                    </mxGeometry>
                </mxCell>
                <mxCell id="27" style="edgeStyle=orthogonalEdgeStyle;rounded=0;html=1;exitX=0;exitY=0.5;exitDx=0;exitDy=0;exitPerimeter=0;endArrow=none;endFill=0;" edge="1" parent="24" source="28">
                    <mxGeometry relative="1" as="geometry">
                        <mxPoint x="50" y="90" as="targetPoint"/>
                    </mxGeometry>
                </mxCell>
                <mxCell id="28" value="" style="pointerEvents=1;fillColor=strokeColor;verticalLabelPosition=bottom;shadow=0;dashed=0;align=center;html=1;verticalAlign=top;shape=mxgraph.electrical.diodes.diode;rotation=-90;" vertex="1" parent="24">
                    <mxGeometry x="50" y="40" width="40" height="20" as="geometry"/>
                </mxCell>
                <mxCell id="29" value="" style="group" vertex="1" connectable="0" parent="1">
                    <mxGeometry x="490" y="360" width="80" height="100" as="geometry"/>
                </mxCell>
                <mxCell id="30" value="" style="verticalLabelPosition=bottom;shadow=0;dashed=0;align=center;html=1;verticalAlign=top;shape=mxgraph.electrical.transistors.nigbt;" vertex="1" parent="29">
                    <mxGeometry width="50" height="100" as="geometry"/>
                </mxCell>
                <mxCell id="31" style="edgeStyle=orthogonalEdgeStyle;rounded=0;html=1;exitX=1;exitY=0.5;exitDx=0;exitDy=0;exitPerimeter=0;endArrow=none;endFill=0;" edge="1" parent="29" source="33">
                    <mxGeometry relative="1" as="geometry">
                        <mxPoint x="50" y="20" as="targetPoint"/>
                    </mxGeometry>
                </mxCell>
                <mxCell id="32" style="edgeStyle=orthogonalEdgeStyle;rounded=0;html=1;exitX=0;exitY=0.5;exitDx=0;exitDy=0;exitPerimeter=0;endArrow=none;endFill=0;" edge="1" parent="29" source="33">
                    <mxGeometry relative="1" as="geometry">
                        <mxPoint x="50" y="82" as="targetPoint"/>
                    </mxGeometry>
                </mxCell>
                <mxCell id="33" value="" style="pointerEvents=1;fillColor=strokeColor;verticalLabelPosition=bottom;shadow=0;dashed=0;align=center;html=1;verticalAlign=top;shape=mxgraph.electrical.diodes.diode;rotation=-90;" vertex="1" parent="29">
                    <mxGeometry x="50" y="40" width="40" height="20" as="geometry"/>
                </mxCell>
                <mxCell id="34" value="" style="group" vertex="1" connectable="0" parent="1">
                    <mxGeometry x="400" y="220" width="80" height="100" as="geometry"/>
                </mxCell>
                <mxCell id="35" value="" style="verticalLabelPosition=bottom;shadow=0;dashed=0;align=center;html=1;verticalAlign=top;shape=mxgraph.electrical.transistors.nigbt;" vertex="1" parent="34">
                    <mxGeometry width="50" height="100" as="geometry"/>
                </mxCell>
                <mxCell id="36" style="edgeStyle=orthogonalEdgeStyle;rounded=0;html=1;exitX=1;exitY=0.5;exitDx=0;exitDy=0;exitPerimeter=0;endArrow=none;endFill=0;" edge="1" parent="34" source="38">
                    <mxGeometry relative="1" as="geometry">
                        <mxPoint x="50" y="20" as="targetPoint"/>
                    </mxGeometry>
                </mxCell>
                <mxCell id="37" style="edgeStyle=orthogonalEdgeStyle;rounded=0;html=1;exitX=0;exitY=0.5;exitDx=0;exitDy=0;exitPerimeter=0;endArrow=none;endFill=0;entryX=0.996;entryY=0.888;entryDx=0;entryDy=0;entryPerimeter=0;" edge="1" parent="34" source="38" target="35">
                    <mxGeometry relative="1" as="geometry">
                        <mxPoint x="70" y="90" as="targetPoint"/>
                    </mxGeometry>
                </mxCell>
                <mxCell id="38" value="" style="pointerEvents=1;fillColor=strokeColor;verticalLabelPosition=bottom;shadow=0;dashed=0;align=center;html=1;verticalAlign=top;shape=mxgraph.electrical.diodes.diode;rotation=-90;" vertex="1" parent="34">
                    <mxGeometry x="50" y="40" width="40" height="20" as="geometry"/>
                </mxCell>
                <mxCell id="39" value="" style="group" vertex="1" connectable="0" parent="1">
                    <mxGeometry x="400" y="360" width="80" height="100" as="geometry"/>
                </mxCell>
                <mxCell id="40" value="" style="verticalLabelPosition=bottom;shadow=0;dashed=0;align=center;html=1;verticalAlign=top;shape=mxgraph.electrical.transistors.nigbt;" vertex="1" parent="39">
                    <mxGeometry width="50" height="100" as="geometry"/>
                </mxCell>
                <mxCell id="41" style="edgeStyle=orthogonalEdgeStyle;rounded=0;html=1;exitX=1;exitY=0.5;exitDx=0;exitDy=0;exitPerimeter=0;endArrow=none;endFill=0;" edge="1" parent="39" source="43">
                    <mxGeometry relative="1" as="geometry">
                        <mxPoint x="50" y="20" as="targetPoint"/>
                    </mxGeometry>
                </mxCell>
                <mxCell id="42" style="edgeStyle=orthogonalEdgeStyle;rounded=0;html=1;exitX=0;exitY=0.5;exitDx=0;exitDy=0;exitPerimeter=0;endArrow=none;endFill=0;" edge="1" parent="39" source="43">
                    <mxGeometry relative="1" as="geometry">
                        <mxPoint x="50" y="81" as="targetPoint"/>
                    </mxGeometry>
                </mxCell>
                <mxCell id="43" value="" style="pointerEvents=1;fillColor=strokeColor;verticalLabelPosition=bottom;shadow=0;dashed=0;align=center;html=1;verticalAlign=top;shape=mxgraph.electrical.diodes.diode;rotation=-90;" vertex="1" parent="39">
                    <mxGeometry x="50" y="40" width="40" height="20" as="geometry"/>
                </mxCell>
                <mxCell id="46" style="edgeStyle=orthogonalEdgeStyle;rounded=0;html=1;exitX=1;exitY=1;exitDx=0;exitDy=0;exitPerimeter=0;entryX=1;entryY=0;entryDx=0;entryDy=0;entryPerimeter=0;endArrow=none;endFill=0;" edge="1" parent="1" source="10" target="18">
                    <mxGeometry relative="1" as="geometry"/>
                </mxCell>
                <mxCell id="48" style="edgeStyle=orthogonalEdgeStyle;rounded=0;html=1;exitX=1;exitY=1;exitDx=0;exitDy=0;exitPerimeter=0;entryX=1;entryY=0;entryDx=0;entryDy=0;entryPerimeter=0;endArrow=none;endFill=0;" edge="1" parent="1" source="35" target="40">
                    <mxGeometry relative="1" as="geometry"/>
                </mxCell>
                <mxCell id="49" style="edgeStyle=orthogonalEdgeStyle;rounded=0;html=1;exitX=1;exitY=1;exitDx=0;exitDy=0;exitPerimeter=0;endArrow=none;endFill=0;entryX=1;entryY=0;entryDx=0;entryDy=0;entryPerimeter=0;" edge="1" parent="1" source="25" target="30">
                    <mxGeometry relative="1" as="geometry">
                        <mxPoint x="540.1379310344828" y="360" as="targetPoint"/>
                    </mxGeometry>
                </mxCell>
                <mxCell id="51" value="" style="endArrow=none;html=1;rounded=0;" edge="1" parent="1">
                    <mxGeometry width="50" height="50" relative="1" as="geometry">
                        <mxPoint x="220" y="220" as="sourcePoint"/>
                        <mxPoint x="540" y="220" as="targetPoint"/>
                    </mxGeometry>
                </mxCell>
                <mxCell id="52" value="" style="endArrow=none;html=1;rounded=0;" edge="1" parent="1">
                    <mxGeometry width="50" height="50" relative="1" as="geometry">
                        <mxPoint x="220" y="460" as="sourcePoint"/>
                        <mxPoint x="540" y="460" as="targetPoint"/>
                    </mxGeometry>
                </mxCell>
                <mxCell id="53" style="edgeStyle=orthogonalEdgeStyle;rounded=0;html=1;exitX=1;exitY=1;exitDx=0;exitDy=0;exitPerimeter=0;endArrow=none;endFill=0;" edge="1" parent="1" source="30">
                    <mxGeometry relative="1" as="geometry">
                        <mxPoint x="540.1379310344828" y="460" as="targetPoint"/>
                    </mxGeometry>
                </mxCell>
                <mxCell id="54" style="edgeStyle=orthogonalEdgeStyle;rounded=0;html=1;exitX=1;exitY=1;exitDx=0;exitDy=0;exitPerimeter=0;endArrow=none;endFill=0;" edge="1" parent="1" source="40">
                    <mxGeometry relative="1" as="geometry">
                        <mxPoint x="449.7931034482758" y="460" as="targetPoint"/>
                    </mxGeometry>
                </mxCell>
                <mxCell id="55" style="edgeStyle=orthogonalEdgeStyle;rounded=0;html=1;exitX=1;exitY=1;exitDx=0;exitDy=0;exitPerimeter=0;endArrow=none;endFill=0;" edge="1" parent="1" source="18">
                    <mxGeometry relative="1" as="geometry">
                        <mxPoint x="360.1379310344828" y="460" as="targetPoint"/>
                    </mxGeometry>
                </mxCell>
                <mxCell id="56" style="edgeStyle=orthogonalEdgeStyle;rounded=0;html=1;exitX=1;exitY=0;exitDx=0;exitDy=0;exitPerimeter=0;endArrow=none;endFill=0;" edge="1" parent="1" source="25">
                    <mxGeometry relative="1" as="geometry">
                        <mxPoint x="540.1379310344828" y="220" as="targetPoint"/>
                    </mxGeometry>
                </mxCell>
                <mxCell id="57" style="edgeStyle=orthogonalEdgeStyle;rounded=0;html=1;exitX=1;exitY=0;exitDx=0;exitDy=0;exitPerimeter=0;endArrow=none;endFill=0;" edge="1" parent="1" source="35">
                    <mxGeometry relative="1" as="geometry">
                        <mxPoint x="449.7931034482758" y="220" as="targetPoint"/>
                    </mxGeometry>
                </mxCell>
                <mxCell id="58" style="edgeStyle=orthogonalEdgeStyle;rounded=0;html=1;exitX=1;exitY=0;exitDx=0;exitDy=0;exitPerimeter=0;endArrow=none;endFill=0;" edge="1" parent="1" source="10">
                    <mxGeometry relative="1" as="geometry">
                        <mxPoint x="360.1379310344828" y="220" as="targetPoint"/>
                    </mxGeometry>
                </mxCell>
                <mxCell id="60" value="" style="endArrow=none;html=1;rounded=0;startArrow=oval;startFill=1;" edge="1" parent="1">
                    <mxGeometry width="50" height="50" relative="1" as="geometry">
                        <mxPoint x="360" y="320" as="sourcePoint"/>
                        <mxPoint x="650" y="320" as="targetPoint"/>
                    </mxGeometry>
                </mxCell>
                <mxCell id="61" value="" style="endArrow=none;html=1;rounded=0;startArrow=oval;startFill=1;" edge="1" parent="1">
                    <mxGeometry width="50" height="50" relative="1" as="geometry">
                        <mxPoint x="450" y="340" as="sourcePoint"/>
                        <mxPoint x="650" y="340" as="targetPoint"/>
                    </mxGeometry>
                </mxCell>
                <mxCell id="62" value="" style="endArrow=none;html=1;rounded=0;startArrow=oval;startFill=1;" edge="1" parent="1">
                    <mxGeometry width="50" height="50" relative="1" as="geometry">
                        <mxPoint x="540" y="359" as="sourcePoint"/>
                        <mxPoint x="650" y="359.31" as="targetPoint"/>
                    </mxGeometry>
                </mxCell>
                <mxCell id="9" value="M" style="verticalLabelPosition=middle;shadow=0;dashed=0;align=center;html=1;verticalAlign=middle;strokeWidth=1;shape=ellipse;fontSize=32;perimeter=ellipsePerimeter;" vertex="1" parent="1">
                    <mxGeometry x="630" y="290" width="100" height="100" as="geometry"/>
                </mxCell>
                <mxCell id="64" value="U, i&lt;sub&gt;A&lt;/sub&gt;" style="text;html=1;strokeColor=none;fillColor=none;align=center;verticalAlign=middle;whiteSpace=wrap;rounded=0;" vertex="1" parent="1">
                    <mxGeometry x="580" y="300" width="50" height="20" as="geometry"/>
                </mxCell>
                <mxCell id="65" value="V, i&lt;sub&gt;B&lt;/sub&gt;" style="text;html=1;strokeColor=none;fillColor=none;align=center;verticalAlign=middle;whiteSpace=wrap;rounded=0;" vertex="1" parent="1">
                    <mxGeometry x="580" y="321" width="50" height="20" as="geometry"/>
                </mxCell>
                <mxCell id="66" value="W, i&lt;sub&gt;C&lt;/sub&gt;" style="text;html=1;strokeColor=none;fillColor=none;align=center;verticalAlign=middle;whiteSpace=wrap;rounded=0;" vertex="1" parent="1">
                    <mxGeometry x="580" y="342" width="50" height="20" as="geometry"/>
                </mxCell>
            </root>
        </mxGraphModel>
    </diagram>
</mxfile>